<svg width="19" height="19" viewBox="0 0 19 19" fill="none" xmlns="http://www.w3.org/2000/svg">
<path d="M17.3831 8.2256C17.4278 8.91744 17.4278 9.6339 17.3831 10.3257C17.1547 13.861 14.378 16.6771 10.8922 16.9088C9.70294 16.9878 8.46131 16.9877 7.2745 16.9088C6.8658 16.8816 6.42034 16.7841 6.03667 16.6261C5.60981 16.4503 5.39634 16.3623 5.28786 16.3757C5.17939 16.389 5.022 16.5051 4.70723 16.7372C4.15224 17.1465 3.45306 17.4404 2.41619 17.4152C1.89188 17.4024 1.62973 17.396 1.51237 17.1959C1.39501 16.9958 1.54117 16.7188 1.83351 16.1648C2.23895 15.3965 2.49584 14.5169 2.10659 13.8122C1.43619 12.8055 0.866746 11.6133 0.783533 10.3257C0.738822 9.6339 0.738822 8.91744 0.783533 8.2256C1.01201 4.69031 3.78866 1.87428 7.2745 1.64256C8.27654 1.57595 8.48433 1.56547 9.5 1.6114" stroke="#595F70" stroke-width="1.5" stroke-linecap="round" stroke-linejoin="round"/>
<path d="M9.07947 9.5H9.08695M12.4091 9.5H12.4165M5.74988 9.5H5.75735" stroke="#595F70" stroke-width="2" stroke-linecap="round" stroke-linejoin="round"/>
<path opacity="0.4" d="M17.4167 3.66667C17.4167 5.2775 16.1109 6.58333 14.5 6.58333C12.8892 6.58333 11.5834 5.2775 11.5834 3.66667C11.5834 2.05584 12.8892 0.75 14.5 0.75C16.1109 0.75 17.4167 2.05584 17.4167 3.66667Z" stroke="#595F70" stroke-width="1.5"/>
</svg>
