<svg width="18" height="19" viewBox="0 0 18 19" fill="none" xmlns="http://www.w3.org/2000/svg">
<path d="M0.776034 11.3914C0.598822 12.553 1.3911 13.3594 2.36114 13.7612C6.08011 15.3018 11.2554 15.3018 14.9744 13.7612C15.9444 13.3594 16.7367 12.553 16.5595 11.3914C16.4506 10.6774 15.9121 10.0829 15.5131 9.50243C14.9905 8.73272 14.9386 7.89319 14.9385 7C14.9385 3.54822 12.131 0.75 8.66777 0.75C5.20454 0.75 2.39704 3.54822 2.39704 7C2.39696 7.89319 2.34503 8.73272 1.82244 9.50243C1.42346 10.0829 0.884942 10.6774 0.776034 11.3914Z" stroke="#595F70" stroke-width="1.5" stroke-linecap="round" stroke-linejoin="round"/>
<path opacity="0.4" d="M5.33435 14.9167C5.71642 16.3544 7.06396 17.4167 8.66768 17.4167C10.2714 17.4167 11.6189 16.3544 12.001 14.9167" stroke="#595F70" stroke-width="1.5" stroke-linecap="round" stroke-linejoin="round"/>
</svg>
