<svg width="30" height="30" viewBox="0 0 30 30" fill="none" xmlns="http://www.w3.org/2000/svg">
<rect width="30" height="30" rx="15" fill="white" fill-opacity="0.02"/>
<path d="M15 4.25C20.9371 4.25 25.75 9.06294 25.75 15C25.75 20.9371 20.9371 25.75 15 25.75C9.06294 25.75 4.25 20.9371 4.25 15C4.25 9.06294 9.06294 4.25 15 4.25ZM14.8418 11.0273C14.3783 10.8127 13.8499 10.6512 13.2988 10.8213C12.9347 10.9337 12.611 11.1442 12.3555 11.4248C11.9836 11.8333 11.8611 12.3677 11.8057 12.9014C11.7504 13.4332 11.75 14.1204 11.75 14.957V15.043C11.75 15.8796 11.7504 16.5668 11.8057 17.0986C11.8611 17.6323 11.9836 18.1666 12.3555 18.5752C12.6111 18.8559 12.9346 19.0673 13.2988 19.1797C13.8499 19.3497 14.3784 19.1873 14.8418 18.9727C15.2989 18.761 15.8502 18.4199 16.5068 18.0137L16.5889 17.9629C17.2704 17.5413 17.8392 17.1898 18.251 16.8623C18.6747 16.5252 19.0474 16.1265 19.1816 15.5713C19.2722 15.1968 19.2722 14.8032 19.1816 14.4287C19.0473 13.8736 18.6747 13.4748 18.251 13.1377C17.8392 12.8102 17.2705 12.4587 16.5889 12.0371L16.5068 11.9863C15.8502 11.5801 15.2989 11.239 14.8418 11.0273Z" fill="white"/>
</svg>
