<svg width="19" height="19" viewBox="0 0 19 19" fill="none" xmlns="http://www.w3.org/2000/svg">
<path opacity="0.4" fill-rule="evenodd" clip-rule="evenodd" d="M13.1607 13.1607C13.4862 12.8353 14.0138 12.8353 14.3393 13.1607L18.0893 16.9107C18.4147 17.2362 18.4147 17.7638 18.0893 18.0893C17.7638 18.4147 17.2362 18.4147 16.9107 18.0893L13.1607 14.3393C12.8353 14.0138 12.8353 13.4862 13.1607 13.1607Z" fill="#595F70"/>
<path fill-rule="evenodd" clip-rule="evenodd" d="M4.00543e-05 8.33333C4.00543e-05 3.73096 3.731 0 8.33337 0C12.9357 0 16.6667 3.73096 16.6667 8.33333C16.6667 12.9357 12.9357 16.6667 8.33337 16.6667C3.731 16.6667 4.00543e-05 12.9357 4.00543e-05 8.33333ZM8.33337 1.66667C4.65147 1.66667 1.66671 4.65143 1.66671 8.33333C1.66671 12.0152 4.65147 15 8.33337 15C12.0153 15 15 12.0152 15 8.33333C15 4.65143 12.0153 1.66667 8.33337 1.66667Z" fill="#595F70"/>
</svg>
