<svg width="20" height="15" viewBox="0 0 20 15" fill="none" xmlns="http://www.w3.org/2000/svg">
<path opacity="0.4" d="M17.2284 12.4167C17.8528 12.4167 18.3495 12.0237 18.7954 11.4743C19.7083 10.3496 18.2095 9.45072 17.6378 9.01052C17.0567 8.56303 16.4079 8.30953 15.75 8.25002M14.9167 6.58335C16.0673 6.58335 17 5.65061 17 4.50002C17 3.34943 16.0673 2.41669 14.9167 2.41669" stroke="#141B34" stroke-width="1.5" stroke-linecap="round"/>
<path opacity="0.4" d="M2.60501 12.4167C1.98059 12.4167 1.48394 12.0237 1.038 11.4743C0.12512 10.3496 1.62394 9.45072 2.19558 9.01052C2.77669 8.56303 3.42553 8.30953 4.08338 8.25002M4.50005 6.58335C3.34945 6.58335 2.41671 5.65061 2.41671 4.50002C2.41671 3.34943 3.34945 2.41669 4.50005 2.41669" stroke="#141B34" stroke-width="1.5" stroke-linecap="round"/>
<path d="M6.65319 10.0094C5.80171 10.5359 3.56917 11.6109 4.92894 12.9562C5.59317 13.6134 6.33295 14.0834 7.26304 14.0834H12.5703C13.5004 14.0834 14.2402 13.6134 14.9044 12.9562C16.2642 11.6109 14.0317 10.5359 13.1802 10.0094C11.1835 8.77471 8.6499 8.77471 6.65319 10.0094Z" stroke="#141B34" stroke-width="1.5" stroke-linecap="round" stroke-linejoin="round"/>
<path d="M12.8334 3.66667C12.8334 5.2775 11.5275 6.58333 9.91669 6.58333C8.30586 6.58333 7.00002 5.2775 7.00002 3.66667C7.00002 2.05584 8.30586 0.75 9.91669 0.75C11.5275 0.75 12.8334 2.05584 12.8334 3.66667Z" stroke="#141B34" stroke-width="1.5"/>
</svg>
