<svg width="18" height="18" viewBox="0 0 18 18" fill="none" xmlns="http://www.w3.org/2000/svg">
<path d="M3.9888 0C4.60475 -1.01855e-05 5.11101 -1.85557e-05 5.52059 0.0389244C5.9462 0.0793918 6.33149 0.166279 6.68195 0.381041C7.02988 0.594254 7.32241 0.886785 7.53563 1.23472C7.75039 1.58518 7.83728 1.97046 7.87774 2.39608C7.91669 2.80565 7.91668 3.31189 7.91667 3.92783V3.92787V3.9888V3.98884C7.91668 4.60477 7.91669 5.11102 7.87774 5.52059C7.83728 5.9462 7.75039 6.33149 7.53563 6.68195C7.32241 7.02988 7.02988 7.32241 6.68195 7.53563C6.33149 7.75039 5.9462 7.83728 5.52059 7.87774C5.11102 7.91669 4.60477 7.91668 3.98884 7.91667H3.9888H3.92787H3.92783C3.31189 7.91668 2.80565 7.91669 2.39608 7.87774C1.97046 7.83728 1.58518 7.75039 1.23472 7.53563C0.886785 7.32241 0.594254 7.02988 0.381041 6.68195C0.166279 6.33149 0.0793918 5.9462 0.0389244 5.52059C-1.85571e-05 5.11101 -1.01855e-05 4.60475 0 3.9888V3.98879V3.92788V3.92787C-1.01855e-05 3.31192 -1.85557e-05 2.80565 0.0389244 2.39608C0.0793918 1.97046 0.166279 1.58518 0.381041 1.23472C0.594254 0.886785 0.886785 0.594254 1.23472 0.381041C1.58518 0.166279 1.97046 0.0793918 2.39608 0.0389244C2.80565 -1.85571e-05 3.31192 -1.01855e-05 3.92787 0H3.92788H3.98879H3.9888Z" fill="white"/>
<path d="M3.9888 10C4.60475 9.99999 5.11101 9.99998 5.52059 10.0389C5.9462 10.0794 6.33149 10.1663 6.68195 10.381C7.02988 10.5943 7.32241 10.8868 7.53563 11.2347C7.75039 11.5852 7.83728 11.9705 7.87774 12.3961C7.91669 12.8056 7.91668 13.3119 7.91667 13.9278V13.9279V13.9888V13.9888C7.91668 14.6048 7.91669 15.111 7.87774 15.5206C7.83728 15.9462 7.75039 16.3315 7.53563 16.682C7.32241 17.0299 7.02988 17.3224 6.68195 17.5356C6.33149 17.7504 5.9462 17.8373 5.52059 17.8777C5.11102 17.9167 4.60477 17.9167 3.98884 17.9167H3.9888H3.92787H3.92783C3.31189 17.9167 2.80565 17.9167 2.39608 17.8777C1.97046 17.8373 1.58518 17.7504 1.23472 17.5356C0.886785 17.3224 0.594254 17.0299 0.381041 16.682C0.166279 16.3315 0.0793918 15.9462 0.0389244 15.5206C-1.85571e-05 15.111 -1.01855e-05 14.6048 0 13.9888V13.9888V13.9279V13.9279C-1.01855e-05 13.3119 -1.85557e-05 12.8057 0.0389244 12.3961C0.0793918 11.9705 0.166279 11.5852 0.381041 11.2347C0.594254 10.8868 0.886785 10.5943 1.23472 10.381C1.58518 10.1663 1.97046 10.0794 2.39608 10.0389C2.80565 9.99998 3.31192 9.99999 3.92787 10H3.92788H3.98879H3.9888Z" fill="white"/>
<path d="M13.9888 0C14.6048 -1.01855e-05 15.111 -1.85557e-05 15.5206 0.0389244C15.9462 0.0793918 16.3315 0.166279 16.682 0.381041C17.0299 0.594254 17.3224 0.886785 17.5356 1.23472C17.7504 1.58518 17.8373 1.97046 17.8777 2.39608C17.9167 2.80565 17.9167 3.31189 17.9167 3.92783V3.92787V3.9888V3.98884C17.9167 4.60477 17.9167 5.11102 17.8777 5.52059C17.8373 5.9462 17.7504 6.33149 17.5356 6.68195C17.3224 7.02988 17.0299 7.32241 16.682 7.53563C16.3315 7.75039 15.9462 7.83728 15.5206 7.87774C15.111 7.91669 14.6048 7.91668 13.9888 7.91667H13.9888H13.9279H13.9278C13.3119 7.91668 12.8056 7.91669 12.3961 7.87774C11.9705 7.83728 11.5852 7.75039 11.2347 7.53563C10.8868 7.32241 10.5943 7.02988 10.381 6.68195C10.1663 6.33149 10.0794 5.9462 10.0389 5.52059C9.99998 5.11101 9.99999 4.60475 10 3.9888V3.98879V3.92788V3.92787C9.99999 3.31192 9.99998 2.80565 10.0389 2.39608C10.0794 1.97046 10.1663 1.58518 10.381 1.23472C10.5943 0.886785 10.8868 0.594254 11.2347 0.381041C11.5852 0.166279 11.9705 0.0793918 12.3961 0.0389244C12.8057 -1.85571e-05 13.3119 -1.01855e-05 13.9279 0H13.9279H13.9888H13.9888Z" fill="white"/>
<path d="M13.9888 10C14.6048 9.99999 15.111 9.99998 15.5206 10.0389C15.9462 10.0794 16.3315 10.1663 16.682 10.381C17.0299 10.5943 17.3224 10.8868 17.5356 11.2347C17.7504 11.5852 17.8373 11.9705 17.8777 12.3961C17.9167 12.8056 17.9167 13.3119 17.9167 13.9278V13.9279V13.9888V13.9888C17.9167 14.6048 17.9167 15.111 17.8777 15.5206C17.8373 15.9462 17.7504 16.3315 17.5356 16.682C17.3224 17.0299 17.0299 17.3224 16.682 17.5356C16.3315 17.7504 15.9462 17.8373 15.5206 17.8777C15.111 17.9167 14.6048 17.9167 13.9888 17.9167H13.9888H13.9279H13.9278C13.3119 17.9167 12.8056 17.9167 12.3961 17.8777C11.9705 17.8373 11.5852 17.7504 11.2347 17.5356C10.8868 17.3224 10.5943 17.0299 10.381 16.682C10.1663 16.3315 10.0794 15.9462 10.0389 15.5206C9.99998 15.111 9.99999 14.6048 10 13.9888V13.9888V13.9279V13.9279C9.99999 13.3119 9.99998 12.8057 10.0389 12.3961C10.0794 11.9705 10.1663 11.5852 10.381 11.2347C10.5943 10.8868 10.8868 10.5943 11.2347 10.381C11.5852 10.1663 11.9705 10.0794 12.3961 10.0389C12.8057 9.99998 13.3119 9.99999 13.9279 10H13.9279H13.9888H13.9888Z" fill="white"/>
</svg>
