<svg width="19" height="17" viewBox="0 0 19 17" fill="none" xmlns="http://www.w3.org/2000/svg">
<path d="M13.25 7.25371C13.25 6.9657 13.25 6.82169 13.2934 6.69331C13.4194 6.32037 13.7515 6.17563 14.0842 6.02407C14.4583 5.85368 14.6454 5.76849 14.8307 5.7535C15.0411 5.73649 15.2519 5.78181 15.4317 5.88274C15.6701 6.01654 15.8364 6.27078 16.0066 6.47751C16.7927 7.43237 17.1858 7.9098 17.3296 8.4363C17.4457 8.86117 17.4457 9.30549 17.3296 9.73037C17.1198 10.4983 16.4571 11.142 15.9665 11.7378C15.7155 12.0426 15.5901 12.195 15.4317 12.2839C15.2519 12.3849 15.0411 12.4302 14.8307 12.4132C14.6454 12.3982 14.4583 12.313 14.0842 12.1426C13.7515 11.991 13.4194 11.8463 13.2934 11.4734C13.25 11.345 13.25 11.201 13.25 10.913V7.25371Z" stroke="#141B34" stroke-width="1.5"/>
<path d="M4.91667 7.25385C4.91667 6.89114 4.90648 6.56517 4.61326 6.31017C4.50661 6.21741 4.36521 6.15301 4.08242 6.02421C3.70834 5.85382 3.5213 5.76863 3.33597 5.75364C2.77993 5.70867 2.48077 6.08817 2.16011 6.47765C1.37396 7.43251 0.980886 7.90994 0.837055 8.43643C0.720983 8.86131 0.720983 9.30563 0.837055 9.73051C1.04684 10.4984 1.7096 11.1421 2.20018 11.738C2.50941 12.1136 2.80481 12.4563 3.33597 12.4133C3.5213 12.3983 3.70834 12.3131 4.08242 12.1427C4.36521 12.0139 4.50661 11.9495 4.61326 11.8568C4.90648 11.6018 4.91667 11.2758 4.91667 10.9131V7.25385Z" stroke="#141B34" stroke-width="1.5"/>
<path d="M3.25 5.75C3.25 2.98858 5.86168 0.75 9.08334 0.75C12.305 0.75 14.9167 2.98858 14.9167 5.75" stroke="#141B34" stroke-width="1.5" stroke-linecap="square" stroke-linejoin="round"/>
<path opacity="0.4" d="M14.9167 12.4167V13.0834C14.9167 14.5561 13.4243 15.75 11.5833 15.75H9.91667" stroke="#141B34" stroke-width="1.5" stroke-linecap="round" stroke-linejoin="round"/>
</svg>
