<svg width="18" height="19" viewBox="0 0 18 19" fill="none" xmlns="http://www.w3.org/2000/svg">
<path d="M16.5875 5.02799L16.1762 4.31415C15.8651 3.77429 15.7096 3.50436 15.4449 3.39672C15.1803 3.28909 14.881 3.37402 14.2824 3.54389L13.2655 3.83031C12.8833 3.91844 12.4824 3.86844 12.1334 3.68915L11.8527 3.52717C11.5534 3.33552 11.3233 3.05293 11.1959 2.72078L10.9176 1.88962C10.7346 1.3396 10.6431 1.0646 10.4253 0.907298C10.2075 0.75 9.91816 0.75 9.33953 0.75H8.41055C7.83191 0.75 7.5426 0.75 7.32479 0.907298C7.10697 1.0646 7.01548 1.3396 6.8325 1.88962L6.55421 2.72078C6.42681 3.05293 6.19664 3.33552 5.89741 3.52717L5.61667 3.68915C5.26771 3.86844 4.86676 3.91844 4.48459 3.83031L3.46772 3.54389C2.86911 3.37402 2.5698 3.28909 2.30516 3.39672C2.04051 3.50436 1.88497 3.77429 1.57389 4.31415L1.16257 5.02799C0.870979 5.53403 0.725184 5.78705 0.75348 6.0564C0.781777 6.32575 0.976956 6.5428 1.36732 6.97692L2.22652 7.93751C2.43651 8.20336 2.5856 8.66667 2.5856 9.0832C2.5856 9.5 2.43656 9.96318 2.22654 10.2291L1.36732 11.1897C0.976959 11.6238 0.781779 11.8408 0.753481 12.1102C0.725184 12.3795 0.870984 12.6326 1.16257 13.1386L1.57388 13.8524C1.88495 14.3923 2.04051 14.6622 2.30516 14.7699C2.56981 14.8775 2.86912 14.7926 3.46774 14.6227L4.48455 14.3363C4.86679 14.2481 5.26782 14.2981 5.61682 14.4775L5.89751 14.6395C6.19669 14.8311 6.4268 15.1137 6.55418 15.4458L6.8325 16.277C7.01548 16.8271 7.10697 17.1021 7.32479 17.2594C7.5426 17.4167 7.83191 17.4167 8.41055 17.4167H9.33953C9.91816 17.4167 10.2075 17.4167 10.4253 17.2594C10.6431 17.1021 10.7346 16.8271 10.9176 16.277L11.1959 15.4458C11.3233 15.1137 11.5534 14.8311 11.8526 14.6395L12.1333 14.4775C12.4823 14.2981 12.8833 14.2481 13.2655 14.3363L14.2823 14.6227C14.881 14.7926 15.1803 14.8775 15.4449 14.7699C15.7096 14.6622 15.8651 14.3923 16.1762 13.8524L16.5875 13.1386C16.8791 12.6326 17.0249 12.3795 16.9966 12.1102C16.9683 11.8408 16.7731 11.6238 16.3828 11.1897L15.5235 10.2291C15.3135 9.96318 15.1645 9.5 15.1645 9.0832C15.1645 8.66667 15.3136 8.20336 15.5236 7.93751L16.3828 6.97692C16.7731 6.5428 16.9683 6.32575 16.9966 6.0564C17.0249 5.78705 16.8791 5.53403 16.5875 5.02799Z" stroke="#141B34" stroke-width="1.5" stroke-linecap="round"/>
<path opacity="0.4" d="M11.7559 9.07682C11.7559 10.6877 10.45 11.9935 8.83921 11.9935C7.22838 11.9935 5.92254 10.6877 5.92254 9.07682C5.92254 7.46599 7.22838 6.16016 8.83921 6.16016C10.45 6.16016 11.7559 7.46599 11.7559 9.07682Z" stroke="#141B34" stroke-width="1.5"/>
</svg>
