<svg width="18" height="18" viewBox="0 0 18 18" fill="none" xmlns="http://www.w3.org/2000/svg">
<path d="M4.5 13.6667L4.5 12" stroke="#141B34" stroke-width="1.5" stroke-linecap="round"/>
<path d="M8.66667 13.6667L8.66667 11.1667" stroke="#141B34" stroke-width="1.5" stroke-linecap="round"/>
<path d="M12.8333 13.6667L12.8333 9.5" stroke="#141B34" stroke-width="1.5" stroke-linecap="round"/>
<path opacity="0.4" d="M3.66667 7.50002C3.25245 7.50002 2.91667 7.83581 2.91667 8.25002C2.91667 8.66423 3.25245 9.00002 3.66667 9.00002V8.25002V7.50002ZM12.6512 4.45546C12.8567 4.09582 12.7317 3.63768 12.3721 3.43217C12.0125 3.22666 11.5543 3.35161 11.3488 3.71125L12 4.08335L12.6512 4.45546ZM10.2113 3.17233C9.80258 3.23975 9.52592 3.62571 9.59333 4.0344C9.66075 4.44309 10.0467 4.71975 10.4554 4.65234L10.3333 3.91234L10.2113 3.17233ZM11.3897 3.73809L11.2676 2.99809V2.99809L11.3897 3.73809ZM12.5682 4.40796L11.8472 4.61452L12.5682 4.40796ZM12.1123 5.53991C12.2264 5.93811 12.6417 6.16843 13.0399 6.05435C13.4381 5.94027 13.6684 5.52499 13.5543 5.12679L12.8333 5.33335L12.1123 5.53991ZM12.2284 3.7263L12.5991 3.07428V3.07427L12.2284 3.7263ZM3.66667 8.25002V9.00002C7.59084 9.00002 10.8097 7.67799 12.6512 4.45546L12 4.08335L11.3488 3.71125C9.85693 6.32205 7.2425 7.50002 3.66667 7.50002V8.25002ZM10.3333 3.91234L10.4554 4.65234L11.5118 4.47809L11.3897 3.73809L11.2676 2.99809L10.2113 3.17233L10.3333 3.91234ZM12.5682 4.40796L11.8472 4.61452L12.1123 5.53991L12.8333 5.33335L13.5543 5.12679L13.2892 4.2014L12.5682 4.40796ZM11.3897 3.73809L11.5118 4.47809C11.6252 4.45937 11.7133 4.44488 11.7892 4.4341C11.8653 4.4233 11.9133 4.41861 11.9451 4.41716C12.0055 4.4144 11.9434 4.42699 11.8578 4.37833L12.2284 3.7263L12.5991 3.07427C12.3409 2.92752 12.0815 2.90937 11.8767 2.91872C11.6894 2.92726 11.4716 2.96444 11.2676 2.99809L11.3897 3.73809ZM12.5682 4.40796L13.2892 4.2014C13.2396 4.02837 13.182 3.82031 13.1048 3.64946C13.0145 3.44943 12.8674 3.22682 12.5991 3.07428L12.2284 3.7263L11.8578 4.37833C11.8189 4.35621 11.7843 4.32623 11.7586 4.29492C11.7363 4.26768 11.731 4.25183 11.7377 4.2666C11.745 4.28275 11.7576 4.31502 11.7774 4.37763C11.7972 4.44014 11.8185 4.51433 11.8472 4.61452L12.5682 4.40796Z" fill="#141B34"/>
<path d="M0.75 8.66667C0.75 4.93471 0.75 3.06874 1.90937 1.90937C3.06874 0.75 4.93471 0.75 8.66667 0.75C12.3986 0.75 14.2646 0.75 15.424 1.90937C16.5833 3.06874 16.5833 4.93471 16.5833 8.66667C16.5833 12.3986 16.5833 14.2646 15.424 15.424C14.2646 16.5833 12.3986 16.5833 8.66667 16.5833C4.93471 16.5833 3.06874 16.5833 1.90937 15.424C0.75 14.2646 0.75 12.3986 0.75 8.66667Z" stroke="#141B34" stroke-width="1.5"/>
</svg>
